<svg width="81" height="80" viewBox="0 0 81 80" fill="none" xmlns="http://www.w3.org/2000/svg">
<ellipse cx="40.5" cy="39.913" rx="40.5" ry="39.913" fill="#CEE6FF"/>
<path d="M61.7178 39.2515C61.7178 49.3316 52.3782 57.5031 40.8589 57.5031C38.793 57.5059 36.7356 57.2376 34.7394 56.7052C33.2167 57.477 29.7203 58.958 23.838 59.9227C23.3166 60.0062 22.9202 59.4638 23.1262 58.9789C24.0492 56.7991 24.8836 53.8945 25.1339 51.2454C21.9399 48.0384 20 43.8405 20 39.2515C20 29.1715 29.3396 21 40.8589 21C52.3782 21 61.7178 29.1715 61.7178 39.2515ZM33.0368 39.2515C33.0368 38.56 32.7621 37.8968 32.2731 37.4079C31.7842 36.9189 31.121 36.6442 30.4295 36.6442C29.7379 36.6442 29.0747 36.9189 28.5858 37.4079C28.0968 37.8968 27.8221 38.56 27.8221 39.2515C27.8221 39.9431 28.0968 40.6063 28.5858 41.0952C29.0747 41.5842 29.7379 41.8589 30.4295 41.8589C31.121 41.8589 31.7842 41.5842 32.2731 41.0952C32.7621 40.6063 33.0368 39.9431 33.0368 39.2515ZM43.4663 39.2515C43.4663 38.56 43.1916 37.8968 42.7026 37.4079C42.2136 36.9189 41.5504 36.6442 40.8589 36.6442C40.1674 36.6442 39.5042 36.9189 39.0152 37.4079C38.5262 37.8968 38.2515 38.56 38.2515 39.2515C38.2515 39.9431 38.5262 40.6063 39.0152 41.0952C39.5042 41.5842 40.1674 41.8589 40.8589 41.8589C41.5504 41.8589 42.2136 41.5842 42.7026 41.0952C43.1916 40.6063 43.4663 39.9431 43.4663 39.2515ZM51.2884 41.8589C51.9799 41.8589 52.6431 41.5842 53.132 41.0952C53.621 40.6063 53.8957 39.9431 53.8957 39.2515C53.8957 38.56 53.621 37.8968 53.132 37.4079C52.6431 36.9189 51.9799 36.6442 51.2884 36.6442C50.5968 36.6442 49.9337 36.9189 49.4447 37.4079C48.9557 37.8968 48.681 38.56 48.681 39.2515C48.681 39.9431 48.9557 40.6063 49.4447 41.0952C49.9337 41.5842 50.5968 41.8589 51.2884 41.8589Z" fill="#2C8CF4"/>
</svg>
